HIERARCHY
ROOT Hips
{
	OFFSET 0.000000 0.000000 0.000000 
	CHANNELS 6 Xposition Yposition Zposition Yrotation Zrotation Xrotation 
	JOINT Lumbar
	{
		OFFSET 0.000000 0.000000 0.000000 
		CHANNELS 3 Zrotation Xrotation Yrotation
		JOINT Neck
		{
			OFFSET 0.000000 0.445665 0.000000 
			CHANNELS 3 Zrotation Xrotation Yrotation
			End Site
			{
				OFFSET 0.000000 0.227535 0.000000 
			}
		}
		JOINT RightShoulder
		{
			OFFSET 0.019635 0.377685 0.194865 
			CHANNELS 3 Zrotation Xrotation Yrotation
			JOINT RightElbow
			{
				OFFSET 0.000000 -0.243375 0.000000 
				CHANNELS 2 Zrotation Yrotation
				JOINT RightWrist
				{
					OFFSET 0.000000 -0.264825 0.000000 
					CHANNELS 2 Zrotation Xrotation
					End Site
					{
						OFFSET 0.006600 -0.176220 0.000990 
					}
				}
			}
		}
		JOINT LeftShoulder
		{
			OFFSET 0.019635 0.377685 -0.194865 
			CHANNELS 3 Zrotation Xrotation Yrotation
			JOINT LeftElbow
			{
				OFFSET 0.000000 -0.243375 0.000000 
				CHANNELS 2 Zrotation Yrotation
				JOINT LeftWrist
				{
					OFFSET 0.000000 -0.264825 0.000000 
					CHANNELS 2 Zrotation Xrotation
					End Site
					{
						OFFSET 0.006600 -0.176220 -0.000990 
					}
				}
			}
		}
	}
	JOINT RightHip
	{
		OFFSET 0.052140 -0.069960 0.075570 
		CHANNELS 3 Zrotation Xrotation Yrotation
		JOINT RightKnee
		{
			OFFSET 0.000000 -0.402270 0.000000 
			CHANNELS 1 Zrotation
			JOINT RightAnkle
			{
				OFFSET 0.000000 -0.404085 0.000000 
				CHANNELS 3 Zrotation Xrotation Yrotation
				End Site
				{
					OFFSET 0.204105 -0.089430 0.008415 
				}
			}
		}
	}
	JOINT LeftHip
	{
		OFFSET 0.052140 -0.069960 -0.075570 
		CHANNELS 3 Zrotation Xrotation Yrotation
		JOINT LeftKnee
		{
			OFFSET 0.000000 -0.402270 0.000000 
			CHANNELS 1 Zrotation
			JOINT LeftAnkle
			{
				OFFSET 0.000000 -0.404085 0.000000 
				CHANNELS 3 Zrotation Xrotation Yrotation
				End Site
				{
					OFFSET 0.204105 -0.089430 -0.008415 
				}
			}
		}
	}
}
MOTION
Frames: 26
Frame Time: 0.02
0.45078 -0.95154 0.03868 -898.95844 28.67752 0.69097 -8.08994 1.17287 -2.46206 -46.0587 -4.64951 -0.83078 -32.564 -34.21673 21.34506 52.55633 81.74065 -2.99229 -10.79658 -18.7784 39.18813 -17.0379 40.87898 -81.97238 -8.09617 11.02419 105.69656 -5.76478 -6.35173 -71.52084 -15.30679 -3.05638 -2.62915 130.40517 -13.92276 -12.93192 -125.44073 -32.98126 -17.71103 -10.34925
0.4504 -0.95141 0.03843 -898.94724 28.55581 0.66415 -8.28879 1.31996 -2.57481 -46.30801 -4.89089 -0.83078 -32.28381 -34.17217 22.13912 52.62477 81.67468 -2.97571 -10.84594 -18.82542 39.13732 -18.18499 41.47913 -81.96122 -7.96019 11.1864 107.12284 -5.9264 -6.59632 -73.85914 -15.51431 -3.03951 -2.62969 130.40517 -13.92278 -12.98399 -125.50357 -32.53184 -17.75456 -10.26942
0.45003 -0.95129 0.03828 -898.91988 28.44022 0.61293 -8.49873 1.49732 -2.74572 -46.53193 -5.14624 -0.83078 -31.91689 -34.18011 22.90589 52.53106 81.63312 -2.99176 -10.84734 -18.77522 39.09828 -19.41024 41.93136 -81.95047 -7.80795 11.28959 108.71937 -6.01498 -6.65111 -76.47496 -15.7753 -3.02391 -2.63408 130.40518 -13.9228 -13.01938 -125.57378 -32.0271 -17.76959 -10.1737
0.44965 -0.95117 0.0381 -898.89411 28.32686 0.57174 -8.70941 1.65965 -2.89657 -46.76391 -5.39081 -0.83078 -31.59896 -34.17273 23.67368 52.52119 81.57998 -2.99039 -10.87113 -18.76488 39.05529 -20.60577 42.44231 -81.93982 -7.6615 11.41322 110.23909 -6.16916 -6.81011 -78.97125 -16.00829 -3.00644 -2.63575 130.40518 -13.92281 -13.04942 -125.64029 -31.54543 -17.7506 -10.09234
0.44927 -0.951 0.03784 -898.89182 28.19486 0.53451 -8.89737 1.82847 -3.02464 -47.01051 -5.65739 -0.83078 -31.24101 -34.13123 24.48941 52.47082 81.53029 -2.99512 -10.886 -18.77261 39.00922 -21.78624 42.99244 -81.92818 -7.51424 11.55553 111.75871 -6.19528 -6.90809 -81.44701 -16.25646 -2.99371 -2.64109 130.40518 -13.92283 -13.13179 -125.70998 -31.07374 -17.92221 -9.9796
0.44891 -0.95095 0.03777 -898.8385 28.10159 0.48358 -9.13446 1.99062 -3.21105 -47.22169 -5.88073 -0.83078 -30.94219 -34.17299 25.20138 52.46539 81.4783 -2.99549 -10.91104 -18.71718 38.97183 -23.01145 43.4247 -81.91866 -7.36724 11.64939 113.31623 -6.46776 -7.08373 -84.02679 -16.48564 -2.97161 -2.63982 130.40519 -13.92285 -13.10458 -125.77389 -30.56933 -17.69838 -9.92876
0.44859 -0.95121 0.03819 -898.6302 28.1217 0.3985 -9.50742 2.12635 -3.5612 -47.32828 -5.97431 -0.83078 -30.86873 -34.42577 25.60172 52.62463 81.41666 -2.99065 -10.96792 -18.5399 38.94805 -24.36093 43.5658 -81.91394 -7.23054 11.60781 114.95898 -7.43623 -7.50417 -86.84929 -16.65254 -2.92471 -2.62035 130.40519 -13.92285 -12.74665 -125.82352 -29.96809 -16.32292 -10.05414
0.4483 -0.95158 0.03879 -898.37395 28.1794 0.30063 -9.92904 2.25451 -3.96476 -47.4022 -6.02466 -0.83078 -30.84917 -34.76106 25.90386 52.83473 81.34979 -2.97796 -11.03792 -18.29611 38.93312 -25.74834 43.5932 -81.91117 -7.09464 11.52339 116.62922 -8.65537 -8.01004 -89.76197 -16.79808 -2.8685 -2.59419 130.40519 -13.92286 -12.28416 -125.86649 -29.33972 -14.5631 -10.2418
0.44801 -0.9519 0.03929 -898.15185 28.21373 0.21054 -10.32585 2.38606 -4.33214 -47.49967 -6.09878 -0.83078 -30.78057 -35.06254 26.27172 53.01995 81.28529 -2.96062 -11.10936 -18.06607 38.91901 -27.10379 43.67345 -81.90848 -6.95601 11.47028 118.27304 -9.75848 -8.48495 -92.61708 -16.95131 -2.81541 -2.57025 130.40519 -13.92286 -11.89158 -125.90973 -28.73565 -13.02322 -10.40086
0.44765 -0.95224 0.03988 -897.87865 28.27256 0.11253 -10.73304 2.51793 -4.75092 -47.56026 -6.15596 -0.83078 -30.81865 -35.35142 26.55069 53.20486 81.22764 -2.98088 -11.15226 -17.90776 38.88647 -28.52267 43.74381 -81.90299 -6.82716 11.36546 119.98409 -10.8636 -8.9201 -95.55131 -17.11459 -2.76585 -2.54904 130.40519 -13.92287 -11.40711 -125.96385 -28.07665 -11.29138 -10.56264
0.44745 -0.95257 0.04032 -897.69865 28.29208 0.02676 -11.13179 2.64818 -5.07575 -47.68933 -6.23807 -0.83078 -30.64077 -35.68405 26.99049 53.40731 81.1467 -2.9182 -11.25275 -17.57847 38.89235 -29.8194 43.80945 -81.90223 -6.67774 11.35839 121.55631 -12.03063 -9.46105 -98.33937 -17.25159 -2.70818 -2.5216 130.40519 -13.92287 -11.08538 -125.99491 -27.52951 -9.86828 -10.73122
0.44773 -0.95288 0.04024 -897.80618 28.1681 -0.00817 -11.47956 2.76461 -5.11683 -48.02248 -6.39862 -0.83078 -29.91673 -36.12744 27.91127 53.6214 81.0659 -2.64883 -11.55939 -16.85274 39.01746 -30.75197 43.89235 -81.92734 -6.47706 11.637 122.7639 -13.25648 -10.26977 -100.69139 -17.31782 -2.61844 -2.47037 130.40519 -13.92287 -11.27342 -125.95318 -27.2675 -9.39255 -10.92618
0.44816 -0.95318 0.04001 -898.00629 28.00749 -0.03246 -11.8198 2.88133 -5.06283 -48.42385 -6.5861 -0.83078 -28.96013 -36.60878 28.9959 53.8555 80.94954 -2.29244 -11.91568 -15.94572 39.17746 -31.56346 43.97469 -81.95469 -6.25464 12.01461 123.82511 -14.54397 -11.18253 -102.89263 -17.35901 -2.52352 -2.41546 130.40519 -13.92287 -11.62246 -125.89057 -27.12262 -9.23993 -11.12234
0.44851 -0.95348 0.03987 -898.1514 27.88113 -0.07109 -12.17405 3.00545 -5.06006 -48.79038 -6.76151 -0.83078 -28.07142 -37.06716 29.99611 54.09882 80.8084 -1.96223 -12.21484 -15.08442 39.31209 -32.44116 44.05641 -81.97223 -6.03859 12.344 124.93597 -15.83926 -12.05212 -105.16968 -17.41328 -2.43827 -2.3665 130.40519 -13.92287 -11.87502 -125.84434 -26.94727 -8.94013 -11.30219
0.44893 -0.95384 0.03963 -898.34744 27.6839 -0.07154 -12.48625 3.09864 -5.02734 -49.17465 -6.93371 -0.83078 -27.35223 -37.5569 31.03135 54.27166 80.84152 -1.6877 -12.65504 -14.37936 39.48946 -33.27187 44.1378 -82.02675 -5.83758 12.68627 126.11964 -16.99962 -12.91144 -107.4238 -17.45847 -2.32006 -2.29574 130.40519 -13.92287 -12.22223 -125.76824 -26.68441 -8.6319 -11.54794
0.44923 -0.95406 0.03957 -898.46245 27.62242 -0.14695 -12.88239 3.25504 -5.03122 -49.53521 -7.1208 -0.83078 -26.21385 -37.98383 32.03832 54.58893 80.50133 -1.27726 -12.81977 -13.30189 39.58314 -34.17262 44.22119 -82.00501 -5.59982 13.0248 127.11586 -18.44291 -13.81051 -109.68299 -17.51842 -2.27158 -2.27398 130.40519 -13.92287 -12.41204 -125.75019 -26.62002 -8.41848 -11.65943
0.44908 -0.95386 0.04014 -898.31068 27.96727 -0.44791 -13.52272 3.59741 -5.18018 -49.84233 -7.33162 -0.83078 -24.06129 -38.27339 32.89038 55.35403 79.15964 -0.50909 -12.15436 -11.28125 39.46135 -35.28436 44.31122 -81.77008 -5.26894 13.33764 127.63484 -20.73239 -14.84016 -112.03979 -17.61105 -2.40035 -2.35056 130.40519 -13.92287 -12.12675 -125.89155 -27.17798 -8.43237 -11.36742
0.4488 -0.95351 0.0409 -898.07844 28.44545 -0.82158 -14.2457 4.00107 -5.36487 -50.11776 -7.5585 -0.83078 -21.47851 -38.48924 33.71647 56.25234 77.44256 0.39086 -11.22065 -8.8846 39.24957 -36.47302 44.40357 -81.45877 -4.90188 13.64188 127.96892 -23.28792 -15.89808 -114.39714 -17.72138 -2.60409 -2.48326 130.40519 -13.92287 -11.67814 -126.09321 -27.91252 -8.52685 -10.94461
0.44859 -0.95325 0.04155 -897.89638 28.84776 -1.15151 -14.92349 4.36943 -5.51963 -50.38939 -7.78561 -0.83078 -19.03572 -38.70899 34.5781 57.05553 75.88014 1.22965 -10.4473 -6.63391 39.06309 -37.63396 44.49493 -81.18364 -4.54861 13.94446 128.38488 -25.66837 -16.91118 -116.7238 -17.83403 -2.78252 -2.6157 130.40519 -13.92287 -11.30562 -126.2712 -28.49891 -8.55371 -10.6044
0.44832 -0.95293 0.0423 -897.65914 29.31385 -1.52644 -15.63272 4.77009 -5.7299 -50.7414 -7.98277 -0.83078 -16.81919 -39.0562 35.34206 58.01017 74.37185 2.08211 -9.51346 -4.48286 38.94366 -38.75941 44.58636 -80.90203 -4.20323 14.27396 128.80603 -28.28131 -18.05926 -119.17601 -17.90523 -2.9177 -2.64323 130.40519 -13.92287 -10.93111 -126.43267 -29.37622 -8.71129 -10.17218
0.44815 -0.95269 0.04288 -897.51769 29.67859 -1.8248 -16.29687 5.11695 -5.83305 -50.91611 -8.24462 -0.83078 -14.03236 -39.11853 36.30506 58.67482 72.67709 2.92964 -8.84954 -2.03635 38.66275 -39.97954 44.67767 -80.61619 -3.83627 14.54408 129.17286 -30.47053 -18.93616 -121.36601 -18.06327 -3.16845 -2.9004 130.40519 -13.92287 -10.51944 -126.64318 -29.68776 -8.62557 -9.8934
0.44819 -0.95271 0.04294 -897.64979 29.7359 -1.89615 -16.80967 5.30936 -5.64288 -50.62107 -8.69113 -0.83078 -9.77885 -38.42359 37.78855 58.5588 70.42516 3.79082 -8.99508 1.12185 37.95717 -41.43241 44.77409 -80.33338 -3.38927 14.65075 129.44812 -31.439 -19.01594 -122.85505 -18.49181 -3.65207 -3.79708 130.40519 -13.92287 -10.049 -126.9737 -28.39577 -7.72379 -10.13135
0.44833 -0.9528 0.04281 -897.8823 29.68564 -1.88764 -17.27513 5.44386 -5.34244 -50.14603 -9.20014 -0.83078 -4.96935 -37.4423 39.47776 58.1383 68.01972 4.6332 -9.42053 4.56351 37.0919 -42.97857 44.86996 -80.04951 -2.9258 14.69712 129.67336 -31.96881 -18.82837 -124.076 -19.00097 -4.26007 -4.91906 130.40519 -13.92286 -9.54579 -127.35135 -26.52794 -6.5936 -10.51698
0.44845 -0.95286 0.04276 -898.07576 29.68176 -1.91417 -17.76719 5.59879 -5.08516 -49.74524 -9.67396 -0.83078 -0.41058 -36.58435 41.09688 57.82017 65.77779 5.44184 -9.71991 7.88536 36.30041 -44.49141 44.96118 -79.76891 -2.49119 14.77246 129.91358 -32.68974 -18.79063 -125.40599 -19.45 -4.85831 -5.92579 130.40519 -13.92285 -9.05361 -127.70847 -24.92117 -5.6511 -10.79479
0.44847 -0.95294 0.04276 -898.23998 29.69392 -1.94822 -18.24233 5.78043 -4.8569 -49.37559 -10.17724 -0.83078 4.16526 -35.75206 42.62172 57.65096 63.14346 6.42433 -10.00942 11.19173 35.50174 -45.97595 45.07006 -79.47454 -1.97152 14.84359 130.17994 -33.45489 -18.63704 -126.79238 -19.99769 -5.27015 -6.99011 130.40519 -13.92284 -8.57004 -128.06548 -23.32098 -4.36744 -11.23927
0.44872 -0.95299 0.0426 -898.48838 29.64434 -1.94709 -18.73829 5.89225 -4.54347 -48.89833 -10.63347 -0.83078 8.81925 -34.79989 44.38544 57.10721 61.27419 7.05022 -10.38409 14.58107 34.67994 -47.53131 45.14591 -79.20875 -1.61748 14.90597 130.38244 -34.02008 -18.65747 -127.99455 -20.36019 -6.08823 -7.9856 130.40519 -13.92284 -8.0655 -128.43116 -21.57094 -3.72652 -11.37413
